<?xml version="1.0" encoding="utf-8"?>
<!-- Generator: Adobe Illustrator 21.0.2, SVG Export Plug-In . SVG Version: 6.00 Build 0)  -->
<svg version="1.1" id="Capa_1" xmlns="http://www.w3.org/2000/svg" xmlns:xlink="http://www.w3.org/1999/xlink" x="0px" y="0px"
	 viewBox="0 0 612 409.3" style="enable-background:new 0 0 612 409.3;" xml:space="preserve">
<path d="M306.8,245.5h0.1c4.6,0,9.2-1.3,12.9-3.8l1-0.6c0.2-0.1,0.4-0.3,0.7-0.4l11.7-9.6L611.4,1.3c-0.6-0.8-1.6-1.3-2.6-1.3H3.2
	c-0.8,0-1.4,0.3-2,0.7l291.1,240C296,243.7,301.3,245.5,306.8,245.5z M0,32.5v340.4l208.6-168.5L0,32.5z M403.7,205.6L612,373V33.7
	L403.7,205.6z M337.4,260.2c-8.3,6.8-19.2,10.6-30.6,10.6c-11.5,0-22.3-3.7-30.6-10.5l-47.8-39.4L0,405.4v0.6c0,1.8,1.5,3.2,3.3,3.2
	h605.5c1.7,0,3.2-1.5,3.2-3.3v-0.5L383.7,222L337.4,260.2z"/>
</svg>
