<svg version="1.1" id="Capa_1" xmlns="http://www.w3.org/2000/svg" x="0" y="0" viewBox="0 0 612 409.3" xml:space="preserve"><path d="M306.8 245.5h.1c4.6 0 9.2-1.3 12.9-3.8l1-.6c.2-.1.4-.3.7-.4l11.7-9.6L611.4 1.3c-.6-.8-1.6-1.3-2.6-1.3H3.2c-.8 0-1.4.3-2 .7l291.1 240c3.7 3 9 4.8 14.5 4.8zM0 32.5v340.4l208.6-168.5L0 32.5zm403.7 173.1L612 373V33.7L403.7 205.6zm-66.3 54.6c-8.3 6.8-19.2 10.6-30.6 10.6-11.5 0-22.3-3.7-30.6-10.5l-47.8-39.4L0 405.4v.6c0 1.8 1.5 3.2 3.3 3.2h605.5c1.7 0 3.2-1.5 3.2-3.3v-.5L383.7 222l-46.3 38.2z"/></svg>