<svg xmlns="http://www.w3.org/2000/svg" xmlns:xlink="http://www.w3.org/1999/xlink"><symbol id="arrow" viewBox="0 0 62.1 116">
<path d="M7,114.8c-0.8,0.8-1.8,1.2-2.9,1.2s-2.1-0.4-2.9-1.2c-1.6-1.6-1.6-4.2,0-5.8l51-51L1.2,7c-1.6-1.6-1.6-4.2,0-5.8
	s4.2-1.6,5.8,0l53.9,53.9c1.6,1.6,1.6,4.2,0,5.8L7,114.8z"/>
</symbol><symbol id="email" viewBox="0 0 612 409.3">
<path d="M306.8,245.5h0.1c4.6,0,9.2-1.3,12.9-3.8l1-0.6c0.2-0.1,0.4-0.3,0.7-0.4l11.7-9.6L611.4,1.3c-0.6-0.8-1.6-1.3-2.6-1.3H3.2
	c-0.8,0-1.4,0.3-2,0.7l291.1,240C296,243.7,301.3,245.5,306.8,245.5z M0,32.5v340.4l208.6-168.5L0,32.5z M403.7,205.6L612,373V33.7
	L403.7,205.6z M337.4,260.2c-8.3,6.8-19.2,10.6-30.6,10.6c-11.5,0-22.3-3.7-30.6-10.5l-47.8-39.4L0,405.4v0.6c0,1.8,1.5,3.2,3.3,3.2
	h605.5c1.7,0,3.2-1.5,3.2-3.3v-0.5L383.7,222L337.4,260.2z"/>
</symbol><symbol id="fb" viewBox="0 0 52 96.1">
<path d="M50,0L37.5,0c-14,0-23.1,9.3-23.1,23.7v10.9H2c-1.1,0-2,0.9-2,2v15.8c0,1.1,0.9,2,2,2h12.5v39.9c0,1.1,0.9,2,2,2h16.4
	c1.1,0,2-0.9,2-2V54.3h14.7c1.1,0,2-0.9,2-2l0-15.8c0-0.5-0.2-1-0.6-1.4s-0.9-0.6-1.4-0.6H34.8v-9.2c0-4.4,1.1-6.7,6.8-6.7l8.4,0
	c1.1,0,2-0.9,2-2V2C52,0.9,51.1,0,50,0z"/>
</symbol><symbol id="instagram" viewBox="0 0 512 512">
<path d="M352,0H160C71.6,0,0,71.6,0,160v192c0,88.4,71.6,160,160,160h192c88.4,0,160-71.6,160-160V160C512,71.6,440.4,0,352,0z
	 M464,352c0,61.8-50.2,112-112,112H160c-61.8,0-112-50.2-112-112V160C48,98.2,98.2,48,160,48h192c61.8,0,112,50.2,112,112V352z"/>
<path d="M256,128c-70.7,0-128,57.3-128,128s57.3,128,128,128s128-57.3,128-128S326.7,128,256,128z M256,336c-44.1,0-80-35.9-80-80
	c0-44.1,35.9-80,80-80s80,35.9,80,80C336,300.1,300.1,336,256,336z"/>
<circle cx="393.6" cy="118.4" r="17.1"/>
</symbol><symbol id="pen" viewBox="0 0 322.7 334.9">
<style type="text/css">
	.st0{fill:#010002;}
</style>
<path class="st0" d="M29.2,94.9c12.9,19.5,24.2,42.6,26,46.6c0.5,1.1,1.3,3.9,2.2,7.2c6.3-8.9,13.9-16.2,23.1-21.6
	c13.1-7.7,28.1-10.8,44.3-10.1c-3.9-6.2-7.5-12.6-9.2-17.6c-4.4-12.8-20.3-65.5-29.7-88.1c-9.3-22.5-44.8-6.5-65.5,5.2
	S-1.4,42.8,0.7,46.7C2.8,50.7,16.3,75.4,29.2,94.9z"/>
<path class="st0" d="M108.3,167.5c27.4-11.3,33.3,2.4,33.3,2.4c8.7-8.1,2.6-17.6,2.6-17.6s2.2-4.1-1.4-8.3
	c-2.2-2.6-9.2-11.8-15.3-21.6c-16.2-0.8-31.2,2.4-44.3,10.1c-9.2,5.4-16.8,12.7-23.1,21.6c2.2,8.2,5.1,20.2,5.8,22.3
	c1.1,2.9,3.8,6.9,6.3,7.4c2.5,0.5,4,2.9,4,2.9c3.2,6.6,13.4,7,13.4,7S80.8,178.8,108.3,167.5z"/>
<path class="st0" d="M313.1,225.7c-8.4-6.6-19.7-9.7-28.6-15.6c-23.2-15,6.8-28.9,16.8-37.9c16.9-15.2,21.3-32.8,14.3-54
	c-2.2-6.7-6.9-13.7-4.7-7c12,36.4-26,53.8-45.3,74.2c-7.1,7.5-6.1,15.6,1.3,23.1c14.3,14.5,57.2,26.7,30.6,49.2
	c-18.7,15.8-47.6,17.2-68.3,30.5c-2.8,1.8-3.1,6.6-0.3,8.6c20.3,14.2,48.4,10.8,68.5,23.7c-34.5,10.4-70.7,3.6-106.3,0.4
	c0.1-1,0-1.9,0-1.9c-4.5-27.7-5-33.7-2.9-47.5c2.1-13.8,0-15.1,0-15.1c-21.4-29.3-47.3-84.7-47.3-84.7c-3.5-5.8-17.2-8.2-34.2-0.6
	c-17.6,7.9-16.3,18.6-16.3,18.6l29.9,88c1.1,2.8,5.9,4.2,5.9,4.2c28,8.1,50.8,36.3,53.8,40.7s5.2,2.7,5.2,2.7l-32.6-73.1
	c-2.5-0.6-5-2.7-6.5-5.9c-2.2-4.6-1.3-9.6,1.9-11.1c3.2-1.5,7.6,1.1,9.8,5.7c1.6,3.5,1.5,7.2,0,9.4l31.1,70.3c-0.2,0-0.5,0-0.7-0.1
	c-6.9-0.6,0.3,8.3,19.8,10.7c43.5,5.5,60.5,5.1,102.3-3.8c4.3-0.9,4.4-6.4,1.5-9.3c-18.5-18.9-45.7-14.9-67.9-25.2
	C272.1,281.1,349.7,254.3,313.1,225.7z"/>
</symbol><symbol id="phone" viewBox="0 0 578.1 578.1">
<style type="text/css">
	.st0{fill:#010002;}
</style>
<path class="st0" d="M577.8,456.1c1.2,9.4-1.6,17.5-8.6,24.5l-81.4,80.8c-3.7,4.1-8.5,7.6-14.4,10.4c-5.9,2.9-11.7,4.7-17.4,5.5
	c-0.4,0-1.6,0.1-3.7,0.3c-2,0.2-4.7,0.3-8,0.3c-7.8,0-20.3-1.3-37.6-4s-38.6-9.2-63.6-19.6c-25.1-10.4-53.6-26-85.4-46.8
	c-31.8-20.8-65.7-49.4-101.6-85.7c-28.6-28.2-52.2-55.1-71-80.8c-18.8-25.7-33.9-49.5-45.3-71.3c-11.4-21.8-20-41.6-25.7-59.4
	s-9.6-33-11.6-45.9s-2.9-22.9-2.4-30.3c0.4-7.3,0.6-11.4,0.6-12.2c0.8-5.7,2.7-11.5,5.5-17.4s6.3-10.7,10.4-14.4L98,8.8
	c5.7-5.7,12.2-8.6,19.6-8.6c5.3,0,10,1.5,14.1,4.6s7.5,6.8,10.4,11.3l65.5,124.2c3.7,6.5,4.7,13.7,3.1,21.4s-5.1,14.3-10.4,19.6
	l-30,30c-0.8,0.8-1.5,2.1-2.1,4s-0.9,3.4-0.9,4.6c1.6,8.6,5.3,18.4,11,29.4c4.9,9.8,12.4,21.7,22.6,35.8s24.7,30.3,43.5,48.7
	c18.4,18.8,34.7,33.4,49,43.8c14.3,10.4,26.2,18.1,35.8,22.9s16.9,7.9,22,8.9l7.6,1.5c0.8,0,2.1-0.3,4-0.9c1.8-0.6,3.2-1.3,4-2.1
	l34.9-35.5c7.3-6.5,15.9-9.8,25.7-9.8c6.9,0,12.4,1.2,16.5,3.7h0.6l118.1,69.8C571.1,441.2,576.2,448,577.8,456.1z"/>
</symbol><symbol id="search" viewBox="0 0 53.627 53.627">
<path d="M53.627,49.385L37.795,33.553C40.423,30.046,42,25.709,42,21C42,9.42,32.58,0,21,0S0,9.42,0,21s9.42,21,21,21
	c4.709,0,9.046-1.577,12.553-4.205l15.832,15.832L53.627,49.385z M2,21C2,10.523,10.523,2,21,2s19,8.523,19,19s-8.523,19-19,19
	S2,31.477,2,21z"/>

</symbol></svg>