<svg version="1.1" id="Capa_1" xmlns="http://www.w3.org/2000/svg" x="0" y="0" viewBox="0 0 322.7 334.9" xml:space="preserve"><style>.st0{fill:#010002}</style><path class="st0" d="M29.2 94.9c12.9 19.5 24.2 42.6 26 46.6.5 1.1 1.3 3.9 2.2 7.2 6.3-8.9 13.9-16.2 23.1-21.6 13.1-7.7 28.1-10.8 44.3-10.1-3.9-6.2-7.5-12.6-9.2-17.6-4.4-12.8-20.3-65.5-29.7-88.1-9.3-22.5-44.8-6.5-65.5 5.2S-1.4 42.8.7 46.7c2.1 4 15.6 28.7 28.5 48.2z"/><path class="st0" d="M108.3 167.5c27.4-11.3 33.3 2.4 33.3 2.4 8.7-8.1 2.6-17.6 2.6-17.6s2.2-4.1-1.4-8.3c-2.2-2.6-9.2-11.8-15.3-21.6-16.2-.8-31.2 2.4-44.3 10.1-9.2 5.4-16.8 12.7-23.1 21.6 2.2 8.2 5.1 20.2 5.8 22.3 1.1 2.9 3.8 6.9 6.3 7.4s4 2.9 4 2.9c3.2 6.6 13.4 7 13.4 7s-8.8-14.9 18.7-26.2z"/><path class="st0" d="M313.1 225.7c-8.4-6.6-19.7-9.7-28.6-15.6-23.2-15 6.8-28.9 16.8-37.9 16.9-15.2 21.3-32.8 14.3-54-2.2-6.7-6.9-13.7-4.7-7 12 36.4-26 53.8-45.3 74.2-7.1 7.5-6.1 15.6 1.3 23.1 14.3 14.5 57.2 26.7 30.6 49.2-18.7 15.8-47.6 17.2-68.3 30.5-2.8 1.8-3.1 6.6-.3 8.6 20.3 14.2 48.4 10.8 68.5 23.7-34.5 10.4-70.7 3.6-106.3.4.1-1 0-1.9 0-1.9-4.5-27.7-5-33.7-2.9-47.5 2.1-13.8 0-15.1 0-15.1-21.4-29.3-47.3-84.7-47.3-84.7-3.5-5.8-17.2-8.2-34.2-.6-17.6 7.9-16.3 18.6-16.3 18.6l29.9 88c1.1 2.8 5.9 4.2 5.9 4.2 28 8.1 50.8 36.3 53.8 40.7s5.2 2.7 5.2 2.7l-32.6-73.1c-2.5-.6-5-2.7-6.5-5.9-2.2-4.6-1.3-9.6 1.9-11.1s7.6 1.1 9.8 5.7c1.6 3.5 1.5 7.2 0 9.4l31.1 70.3c-.2 0-.5 0-.7-.1-6.9-.6.3 8.3 19.8 10.7 43.5 5.5 60.5 5.1 102.3-3.8 4.3-.9 4.4-6.4 1.5-9.3-18.5-18.9-45.7-14.9-67.9-25.2 28.2-11.8 105.8-38.6 69.2-67.2z"/></svg>